<svg version="1.1" viewBox="0 0 118 18" xml:space="preserve" xmlns="http://www.w3.org/2000/svg"><defs><clipPath id="clipPath864"><path d="m0 0h1562.5v1562.5h-1562.5z" clip-rule="evenodd"/></clipPath><clipPath id="clipPath876"><path d="m0 0h1562.5v1562.5h-1562.5z" clip-rule="evenodd"/></clipPath></defs><g transform="scale(.32)"><g transform="scale(.236 .035448)" clip-path="url(#clipPath864)"><g transform="scale(3.125)"><path d="m0 0h500v500h-500z" fill="#05006b"/></g></g><g transform="matrix(.083639 0 0 .083639 117.94 -37.962)"><g clip-path="url(#clipPath876)"><g transform="matrix(3.125 0 0 3.125 250.55 711.16)"><text transform="translate(2.0312 41)" fill="#ffffff" font-family="FiraSans" font-size="49.32px" font-weight="900"><tspan x="0 32.349628 68.841515 101.19115 133.78732 170.27921 203.41783 234.68257 268.90607 303.47476" y="0">БОБРОВСКИЙ</tspan></text></g><g transform="matrix(1.7212 0 0 1.7212 253.86 876.38)"><text transform="translate(168.86 46)" fill="#ffffff" font-family="'Clear Sans'" font-size="41.66px" font-weight="500"><tspan x="0 35.039711 65.03511 97.979805 133.01952 165.9642 202.48874 246.68143" y="0">АГРАРНЫЙ</tspan></text></g><g transform="matrix(.28121 0 0 .2817 561.1 491.36)"><path d="m500 499.2h-500v-499.2l500 499.2" fill="#eea64a"/></g><g transform="matrix(.28125 0 0 .28125 700.55 491.24)"><path d="m250 0c-138.07 0-250 111.93-250 250 0 138.07 111.93 250 250 250 138.07 0 250-111.93 250-250 0-138.07-111.93-250-250-250" fill="#67d6f1"/></g><g transform="matrix(.75849 0 0 .75836 861.95 492.78)"><path d="m61.8 176.01c9.5 3.2 20.3 5.3 30.9 5.3 10.6 0 20.8-1.8 30.2-5 0.2-0.10001 0.4-0.10001 0.6-0.20001 35.3-12.8 61.3-46.6 61.8-85.963v-90.149h-185.3v90.084c0.5 39.629 26.1 73.429 61.8 85.929" fill="#5943f4"/></g><g transform="matrix(2.0952 0 0 2.0952 247.53 984.63)"><text transform="translate(198.06 29)" fill="#67d6f1" font-family="'Clear Sans'" font-size="26.66px" font-weight="500"><tspan x="0 14.505582 30.586069 46.419254 62.252441 77.525955 93.359146" y="0">колледж</tspan></text></g></g></g></g></svg>
